<?xml version='1.0' encoding='iso-8859-1'?>
<svg version="1.1" xmlns="http://www.w3.org/2000/svg" viewBox="0 0 30 30" xmlns:xlink="http://www.w3.org/1999/xlink" enable-background="new 0 0 30 30">
  <g>
    <g>
      <path d="m14.5,4h-6c-0.552,0-1,0.447-1,1v1c0,0.553 0.448,1 1,1h6c0.552,0 1-0.447 1-1v-1c0-0.553-0.448-1-1-1zm13-.723v-1.277c0-0.553-0.448-1-1-1s-1,0.447-1,1v1.277c-0.595,0.347-1,0.984-1,1.723v2c0,0.738 0.405,1.376 1,1.723v10.277c0,0.553-0.448,1-1,1s-1-0.447-1-1v-10c0-1.104-0.896-2-2-2h-2v-6c0-0.553-0.448-1-1-1h-14c-0.552,0-1,0.447-1,1v23h-1c-0.552,0-1,0.447-1,1v4c0,0.553 0.448,1 1,1h18c0.552,0 1-0.447 1-1v-4c0-0.553-0.448-1-1-1h-1v-15h2v10c0,1.657 1.343,3 3,3s3-1.343 3-3v-6c0-0.217-0.031-0.426-0.075-0.629 0.046-0.115 0.075-0.239 0.075-0.371v-3.277c0.595-0.347 1-0.984 1-1.723v-2c0-0.738-0.405-1.376-1-1.723zm-22-1.277h12v22h-12v-22zm14,26h-16v-2h16v2z"/>
    </g>
  </g>
</svg>
