<svg id="Layer_1" xmlns="http://www.w3.org/2000/svg" viewBox="0 0 22 17"><style>.st1{fill:none;stroke:#2ed9c3;stroke-linecap:round;stroke-miterlimit:10}</style><path d="M18 9.4c0 3.7-3 6.8-6.8 6.8s-6.8-3-6.8-6.8 3-6.8 6.8-6.8S18 5.7 18 9.4z" fill="none" stroke="#2ed9c3" stroke-miterlimit="10"/><path class="st1" d="M7 8.2c.7-.7 1.9-.7 2.7 0M12.8 8.2c.7-.7 1.9-.7 2.7 0M9.9 12.7c.7.7 1.9.7 2.6 0M4.6 10.9c-.7 0-1.3-.6-1.3-1.4 0-.8.6-1.4 1.3-1.4M18 10.9c.7 0 1.3-.6 1.3-1.4 0-.8-.6-1.4-1.3-1.4"/><g><path class="st1" d="M10.2 1.8v2.3M12.4 1.8v2.3M11.3.7v3.4"/></g></svg>