<svg xmlns="http://www.w3.org/2000/svg" width="48" height="48" viewBox="0 0 48 48"><title>13-Wall</title><g id="_13-Wall" data-name="13-Wall"><g id="_Group_" data-name="&lt;Group&gt;"><path d="M47,23H35a1,1,0,0,0-1,1v7H25V25h6a1,1,0,0,0,0-2H16V17H26v3a1,1,0,0,0,2,0V1a1,1,0,0,0-1-1H4A4,4,0,0,0,0,4V44a4,4,0,0,0,4,4H44a4,4,0,0,0,4-4V24A1,1,0,0,0,47,23ZM32,39V33h7v6ZM2,39V33H7v6ZM19,9v6H10V9ZM8,15H2V9H8ZM2,31V25h8v6Zm7,2H19v6H9Zm21,0v6H21V33Zm-6,8v5H14V41Zm2,0h9v5H26Zm15-8h5v6H41Zm-5-8H46v6H36ZM23,31H12V25H23Zm-9-8H2V17H14Zm7-8V9h5v6Zm5-8H15V2H26ZM4,2h9V7H2V4A2,2,0,0,1,4,2ZM2,44V41H12v5H4A2,2,0,0,1,2,44Zm42,2H37V41h9v3A2,2,0,0,1,44,46Z"/></g></g></svg>