<?xml version="1.0" encoding="UTF-8" standalone="no"?><!DOCTYPE svg PUBLIC "-//W3C//DTD SVG 1.1//EN" "http://www.w3.org/Graphics/SVG/1.1/DTD/svg11.dtd"><svg width="100%" height="100%" viewBox="0 0 78 74" version="1.1" xmlns="http://www.w3.org/2000/svg" xmlns:xlink="http://www.w3.org/1999/xlink" xml:space="preserve" xmlns:serif="http://www.serif.com/" style="fill-rule:evenodd;clip-rule:evenodd;stroke-linejoin:round;stroke-miterlimit:2;"><g><rect x="0" y="0" width="77.931" height="73.342" style="fill:#00344f;"/><path d="M5.1,32.276c1.518,2.694 3.546,4.891 6.082,6.589c1.924,1.429 3.591,2.459 4.994,3.093c1.402,0.656 2.696,1.164 3.872,1.528l1.019,0l2.312,-0.407c1.29,-0.135 2.578,0.273 3.872,1.219l2.582,1.429c0.522,0.069 0.915,0.215 1.187,0.444c3.104,1.512 6.081,2.175 8.936,1.965l0.814,0l0.577,0.577c0.206,0.163 0.341,0.556 0.41,1.19c0,0.66 -0.419,1.096 -1.259,1.326c-1.085,0.321 -2.49,0.433 -4.211,0.338c-1.406,-0.221 -2.794,-0.338 -4.177,-0.338c1.133,1.362 2.14,2.073 3.021,2.142c1.836,0.161 3.264,0.238 4.282,0.238l2.209,0c0.474,-0.071 0.973,-0.025 1.495,0.135l0.338,-0.846c0.089,-0.8 0.238,-1.371 0.442,-1.735l0.918,-1.699c0.292,-0.14 0.553,-0.152 0.78,-0.034c0.138,0.075 0.204,0.181 0.204,0.344l-0.169,1.119l0,0.674c0.45,-0.674 0.714,-1.056 0.78,-1.116l0.748,-1.153c0.52,-0.522 0.907,-0.797 1.154,-0.82c0.318,-0.161 0.634,-0.167 0.952,-0.032c0.384,0.341 0.576,0.542 0.576,0.611l-0.269,0.373l-1.156,2.28l1.867,-0.889c0.841,-0.404 1.417,-0.634 1.733,-0.677c0.771,-0.298 1.337,-0.37 1.698,-0.241c0.568,0.138 0.941,0.385 1.122,0.755c0.272,0.565 0.329,0.892 0.169,0.981l-3.158,1.557c-1.472,0.752 -3.216,2.017 -5.233,3.81l-7.572,2.315c-1.182,0.335 -2.066,0.424 -2.654,0.266c-1.11,0 -2.025,-0.089 -2.751,-0.266c-2.378,-0.276 -4.79,-0.818 -7.237,-1.633c-4.277,-1.204 -8.594,-3.241 -12.943,-6.121l-2.512,-1.867l-7.949,9.48l0,-34.514c0.158,2.877 0.861,5.41 2.105,7.61m19.569,-12.807c1.495,-0.772 3.227,-2.04 5.195,-3.804l7.576,-2.315c1.133,-0.313 2.028,-0.416 2.685,-0.301c1.064,0 1.971,0.1 2.719,0.301c2.47,0.298 4.891,0.84 7.266,1.632c4.443,1.248 8.746,3.273 12.911,6.084l2.547,1.868l7.918,-9.443l0,34.479c-0.201,-2.943 -0.918,-5.47 -2.14,-7.576c-1.429,-2.627 -3.434,-4.825 -6.013,-6.589c-1.836,-1.339 -3.522,-2.381 -5.063,-3.126c-1.606,-0.68 -2.885,-1.179 -3.838,-1.495l-1.018,0l-2.346,0.407c-1.199,0.135 -2.482,-0.258 -3.839,-1.19l-2.616,-1.492c-0.496,-0.071 -0.892,-0.215 -1.187,-0.441c-3.058,-1.498 -6.013,-2.14 -8.867,-1.939l-0.817,0l-0.611,-0.577c-0.204,-0.158 -0.35,-0.545 -0.439,-1.156c0,-0.611 0.427,-1.076 1.288,-1.391c1.11,-0.25 2.524,-0.362 4.248,-0.339c1.153,0.224 2.547,0.339 4.18,0.339c-1.09,-1.291 -2.094,-2.002 -3.027,-2.14c-2.263,-0.161 -3.703,-0.238 -4.311,-0.238l-2.174,0c-0.454,0.112 -0.956,0.089 -1.498,-0.069l-0.338,0.852c-0.092,0.723 -0.25,1.299 -0.476,1.73l-0.918,1.666c-0.27,0.112 -0.52,0.124 -0.746,0.035c-0.181,-0.115 -0.25,-0.238 -0.204,-0.376l0.169,-1.053l0,-0.746l-1.597,2.307c-0.431,0.476 -0.792,0.751 -1.085,0.82c-0.341,0.135 -0.671,0.143 -0.986,0.029c-0.411,-0.339 -0.611,-0.528 -0.611,-0.574l0.307,-0.407l1.118,-2.244l-1.798,0.847c-0.815,0.41 -1.406,0.636 -1.767,0.682c-0.772,0.247 -1.337,0.339 -1.698,0.27c-0.614,-0.204 -0.976,-0.465 -1.088,-0.777c-0.295,-0.568 -0.364,-0.898 -0.206,-0.987l3.195,-1.563Z" style="fill:#fff;"/><path d="M74.216,2.185c0.279,0 0.52,0.103 0.715,0.307c0.2,0.195 0.301,0.433 0.304,0.712l0,66.004c-0.003,0.281 -0.104,0.522 -0.304,0.717c-0.195,0.198 -0.436,0.304 -0.715,0.304l-70.593,0c-0.279,0 -0.517,-0.106 -0.712,-0.304c-0.201,-0.195 -0.304,-0.436 -0.307,-0.717l0,-66.004c0.003,-0.279 0.106,-0.517 0.307,-0.712c0.195,-0.204 0.433,-0.307 0.712,-0.307l70.593,0Zm-1.018,2.037l-68.554,0l0,63.973l68.554,0l0,-63.973Z" style="fill:#f8faf7;"/><path d="M45.657,29.492c-1.835,-1.839 -4.056,-2.751 -6.657,-2.751c-2.582,0 -4.814,0.912 -6.693,2.751c-1.835,1.81 -2.751,4.039 -2.751,6.689c0,2.628 0.916,4.857 2.751,6.695c1.856,1.81 4.085,2.711 6.693,2.711c2.627,0 4.847,-0.901 6.657,-2.711c1.813,-1.838 2.717,-4.067 2.717,-6.695c0,-2.65 -0.904,-4.879 -2.717,-6.689m3.262,6.755c0,2.763 -0.953,5.112 -2.854,7.034c-1.971,2.016 -4.326,3.023 -7.065,3.023c-2.697,0 -5.04,-1.007 -7.034,-3.023c-1.925,-1.879 -2.886,-4.226 -2.886,-7.034c0,-2.828 0.961,-5.206 2.886,-7.131c2.017,-1.95 4.36,-2.92 7.034,-2.92c2.67,0 5.028,0.97 7.065,2.92c1.901,1.974 2.854,4.349 2.854,7.131m-1.294,-0.066c0,2.381 -0.869,4.455 -2.613,6.219c-1.721,1.647 -3.738,2.476 -6.047,2.476c-2.378,0 -4.452,-0.829 -6.219,-2.476c-1.675,-1.747 -2.513,-3.821 -2.513,-6.219c0,-2.444 0.838,-4.526 2.513,-6.25c1.744,-1.695 3.818,-2.545 6.219,-2.545c2.329,0 4.349,0.85 6.047,2.545c1.744,1.724 2.613,3.806 2.613,6.25" style="fill:#73ba6d;"/><path d="M38.932,37.61c0.315,0 0.611,0.123 0.883,0.376c0.227,0.269 0.339,0.548 0.339,0.846l0,2.14l-2.513,0l0,-2.14c0,-0.316 0.135,-0.599 0.407,-0.846c0.273,-0.253 0.565,-0.376 0.884,-0.376m0.745,-2.005c0.181,0.178 0.273,0.43 0.273,0.752c0,0.335 -0.092,0.596 -0.273,0.777c-0.226,0.201 -0.487,0.301 -0.78,0.301c-0.295,0 -0.568,-0.1 -0.815,-0.301c-0.203,-0.275 -0.306,-0.534 -0.306,-0.777c0,-0.299 0.103,-0.551 0.306,-0.752c0.247,-0.204 0.52,-0.304 0.815,-0.304c0.293,0 0.554,0.1 0.78,0.304m-5.705,1.119c0.158,-0.178 0.407,-0.324 0.746,-0.442l0.476,-0.034l0.576,0.034c0.365,0.14 0.603,0.287 0.715,0.442l0.169,0.209c0.204,0.201 0.307,0.493 0.307,0.878l0,1.328l0.442,1.833l-4.452,0l0.476,-2.074l0,-1.087c0,-0.402 0.181,-0.766 0.545,-1.087m0,-3.428c0.293,-0.296 0.691,-0.442 1.187,-0.442c0.523,0 0.93,0.146 1.222,0.442c0.342,0.381 0.511,0.769 0.511,1.153c0,0.433 -0.169,0.832 -0.511,1.19c-0.361,0.313 -0.768,0.477 -1.222,0.477c-0.407,0 -0.803,-0.164 -1.187,-0.477c-0.341,-0.338 -0.511,-0.734 -0.511,-1.19c0,-0.43 0.17,-0.818 0.511,-1.153m10.054,2.685c0.387,0.378 0.577,0.846 0.577,1.388l0,3.603l-3.907,0l-0.032,-0.241l0,-3.362c0,-0.565 0.181,-1.03 0.542,-1.388c0.476,-0.365 0.941,-0.545 1.394,-0.545l0.032,0c0.453,0 0.918,0.18 1.394,0.545m-0.069,-4.048c0.342,0.345 0.511,0.783 0.511,1.326c0,0.547 -0.169,0.995 -0.511,1.359c-0.384,0.365 -0.858,0.542 -1.425,0.542c-0.566,0 -1.03,-0.177 -1.392,-0.542c-0.407,-0.364 -0.611,-0.812 -0.611,-1.359c0,-0.477 0.204,-0.916 0.611,-1.326c0.339,-0.361 0.803,-0.542 1.392,-0.542c0.588,0 1.064,0.181 1.425,0.542" style="fill:#f8faf7;"/></g></svg>