<svg id="Layer_1" data-name="Layer 1" xmlns="http://www.w3.org/2000/svg" viewBox="0 0 17.91 40.21"><defs><style>.cls-1{fill:#2ecc71}</style></defs><path class="cls-1" d="M24.64 5.8c-3.24 0-5.88 3.08-5.88 6.87v17.52a.25.25 0 0 1-.08.19 9 9 0 1 0 12.65.71 9.14 9.14 0 0 0-.71-.71.25.25 0 0 1-.08-.19V12.66c-.01-3.78-2.65-6.86-5.9-6.86zm.09 37.45h-.18a6.28 6.28 0 0 1-3.73-11.34 1.26 1.26 0 0 0 .51-1v-7.39a.25.25 0 0 1 .25-.25H24a1.28 1.28 0 0 0 .91-.34 1.26 1.26 0 0 0-.82-2.18h-2.5a.25.25 0 0 1-.25-.25v-3a.25.25 0 0 1 .25-.25H24a1.26 1.26 0 0 0 1-2.13 1.26 1.26 0 0 0-.88-.4h-2.5a.25.25 0 0 1-.25-.25v-1.81c0-2.35 1.52-4.34 3.32-4.34s3.32 2 3.32 4.34V30.9a1.26 1.26 0 0 0 .51 1 6.28 6.28 0 0 1-3.78 11.35zm-.09-16.73a1.33 1.33 0 0 0-1.29 1.67.27.27 0 0 1 0 .06v5.61a.25.25 0 0 1-.15.23 3.58 3.58 0 1 0 2.91 0A.25.25 0 0 1 26 34a.25.25 0 0 1 0-.15v-5.6a.27.27 0 0 1 0-.06 1.34 1.34 0 0 0-1.36-1.67z" transform="translate(-15.69 -5.8)"/></svg>
