<svg width="14" height="14" xmlns="http://www.w3.org/2000/svg"><path d="M12.906 6.168a.416.416 0 0 0-.032-.054C10.749 3.04 11.048 1.416 11.45.694h-1c-.051.147-.099.304-.133.481-.286 1.477.313 3.307 1.781 5.44.052.1.115.208.183.326.174.302.382.667.543 1.137-.99.246-3.827.904-5.84.914-1.974-.01-4.741-.643-5.781-.9l-.025-.02c.161-.467.368-.83.541-1.13.068-.119.13-.227.183-.328C3.37 4.482 3.969 2.652 3.683 1.175a3.26 3.26 0 0 0-.134-.48H2.55c.402.72.7 2.345-1.424 5.42a.416.416 0 0 0-.032.053c-.048.095-.108.198-.174.312-.615 1.066-1.74 3.035.04 7.483h.98c-.004-.017-.002-.034-.01-.05-.864-2.06-1.076-3.518-1-4.594 1.277 1.043 4.053 3.194 5.655 3.578v1.066h.912v-1.037c1.497-.273 4.19-2.314 5.582-3.438.042 1.06-.189 2.47-1.01 4.425-.007.016-.005.033-.01.05h.982c1.779-4.448.654-6.417.039-7.483-.066-.114-.126-.217-.174-.312z" fill="#F58323" fill-rule="evenodd"/></svg>