<?xml version="1.0" encoding="UTF-8" standalone="no"?>
<svg width="17px" height="18px" viewBox="0 0 17 18" version="1.1" xmlns="http://www.w3.org/2000/svg" xmlns:xlink="http://www.w3.org/1999/xlink">
    <!-- Generator: Sketch 47 (45396) - http://www.bohemiancoding.com/sketch -->
    <desc>Created with Sketch.</desc>
    <defs></defs>
    <g id="Page-2" stroke="none" stroke-width="1" fill="none" fill-rule="evenodd">
        <g id="nbx-resumen5-odonto" transform="translate(-900.000000, -337.000000)" fill="#9364CC">
            <g id="resumen-consulta-copy-2" transform="translate(879.000000, 73.000000)">
                <g id="Examen" transform="translate(22.000000, 263.000000)">
                    <g id="Page-1" transform="translate(0.000000, 1.000000)">
                        <path d="M13.3601079,10.0093062 C12.0868815,10.8327729 10.488271,11.1951969 8.86282081,10.8961707 C5.6170678,10.2960051 3.48423893,7.27686202 4.10853533,4.16403117 C4.33428208,3.0482303 4.89239865,2.0317526 5.72295552,1.22554421 C6.02922107,0.929687913 6.52777579,0.923348135 6.837718,1.21568233 C7.14802787,1.51012978 7.15170453,1.98913521 6.84801264,2.28675255 C6.23584921,2.8805784 5.8251666,3.62761554 5.65861402,4.4503778 C5.1975612,6.74396849 6.76859684,8.96782162 9.16283604,9.41090164 C11.5552369,9.85116398 13.878149,8.34652341 14.3403048,6.05434156 C14.5917881,4.79765673 14.244344,3.51279512 13.3829032,2.5311862 C13.1027419,2.21032301 13.1453912,1.73237421 13.4807023,1.46328587 C13.8200578,1.19912847 14.3138328,1.23928039 14.5936264,1.55767812 C15.7602298,2.8914969 16.2337832,4.63317472 15.8907511,6.34209702 C15.5756616,7.89886466 14.631496,9.18443069 13.3601079,10.0093062" id="Fill-1"></path>
                        <path d="M15.7428275,0.659401667 C16.2058036,1.34489154 16.0270763,2.27755324 15.3401966,2.74223627 C14.6539764,3.20658975 13.7214291,3.02631909 13.2577936,2.3401701 C12.794158,1.65500979 12.9725554,0.721029843 13.6591054,0.257665056 C14.3449959,-0.207017982 15.2791919,-0.0254290783 15.7428275,0.659401667" id="Fill-3"></path>
                        <path d="M6.74178185,0.660927834 C7.20632582,1.34516009 7.02697031,2.27724527 6.34119922,2.74196949 C5.65410934,3.20636412 4.72106502,3.02673667 4.25751014,2.34118605 C3.79362557,1.65563542 3.97364048,0.72223188 4.65941156,0.257178067 C5.34584205,-0.206227788 6.27657848,-0.0266003406 6.74178185,0.660927834" id="Fill-5"></path>
                        <path d="M9.82866715,15.1413615 C8.38915825,16.1230898 6.58342298,16.27304 5,15.5392491 L5.65920748,14.0894831 C6.7369068,14.589812 7.96440927,14.4888554 8.94383478,13.819647 C10.0752718,13.0468839 10.6258996,11.6769182 10.3480093,10.326253 L11.8938895,10 C12.3064922,11.9864689 11.4945371,14.0033731 9.82866715,15.1413615" id="Fill-7"></path>
                        <path d="M1.8798296,12.3419206 C0.965981776,12.9596493 0.723963613,14.2082668 1.34356201,15.1226967 C1.96036942,16.0339363 3.20873658,16.2752054 4.12059084,15.6574767 C5.03483737,15.0393492 5.27526069,13.7915293 4.65685843,12.8794921 C4.03885489,11.9658598 2.79407613,11.7249895 1.8798296,12.3419206 M4.68178418,16.4857509 C3.30955653,17.4124332 1.44297654,17.0525011 0.515589832,15.6813312 C-0.413701164,14.3097804 -0.0515061896,12.4423232 1.31805546,11.5148791 C2.68952139,10.5878158 4.55648224,10.9466053 5.48463066,12.3181561 C6.41277908,13.6885643 6.05286925,15.5579259 4.68178418,16.4857509" id="Fill-9" stroke="#9364CC" stroke-width="0.25"></path>
                        <path d="M3.82803775,13.4398959 C4.13719419,13.8961085 4.01828787,14.5192091 3.56137571,14.8284198 C3.10485341,15.1376305 2.48030283,15.0171436 2.17153625,14.5617109 C1.86198996,14.1039387 1.98323542,13.4808381 2.43975772,13.1712374 C2.89666988,12.8628065 3.52044075,12.9821237 3.82803775,13.4398959" id="Fill-11"></path>
                    </g>
                </g>
            </g>
        </g>
    </g>
</svg>
