<?xml version='1.0' encoding='utf-8'?>
<!DOCTYPE svg PUBLIC '-//W3C//DTD SVG 1.1//EN' 'http://www.w3.org/Graphics/SVG/1.1/DTD/svg11.dtd'>
<svg width="30" version="1.1" xmlns="http://www.w3.org/2000/svg" height="30" viewBox="0 0 30 30" xmlns:xlink="http://www.w3.org/1999/xlink" enable-background="new 0 0 30 30">
  <path fill-rule="evenodd" d="m10,9.998h20v2h-20v-2zm-10-10h8v12h-8v-12zm2,10h4v-8h-4v8zm28,4c-0.141,0-0.003,0.281-0.009,0.42-0.172,4.171-2.903,7.672-6.661,9 0.147,0.432 0.355,0.95 0.67,1.58 1,2 3,3 3,3v2h-14v-2c0,0 1.736-0.979 3-3 0.382-0.611 0.612-1.119 0.764-1.546-3.318-1.137-5.851-3.962-6.562-7.454h-8.202v-2c0,1.77636e-15 20.79,1.77636e-15 28,1.77636e-15zm-11.125,7.905c-0.132,0.784-0.39,1.962-0.875,3.095-0.659,1.538-2,3-2,3h8c0,0-1.291-1.345-2-3-0.469-1.094-0.731-2.296-0.869-3.096 3.216-0.458 5.819-2.811 6.616-5.904h-15.494c0.797,3.096 3.403,5.449 6.622,5.905z"/>
</svg>
