<svg xmlns="http://www.w3.org/2000/svg" viewBox="0 0 22 17"><path d="M11.3 10.4c.1-.1.2-.1.2-.2.8-1.1 1.8-1.7 2.8-2.3l3-1.8c.1-.1.2-.1.2-.2.1-.1.1-.2.2-.4-.1-.1-.2-.2-.3-.2-.6-.2-1.2-.6-1.6-1.3-.5-.8-.5-1.3.2-2l.2-.3c.9-1 2.4-1 3.3-.2 1.5 1.3 1.8 3.3.9 5.2-.9 1.9-2.2 3.4-3.6 4.7-1.5 1.4-3 2.6-4.5 3.9-.5.4-.9.4-1.5.3-2.2-.6-4.2-1.8-6.1-3.3C3.2 11 2 9.5 1.1 7.6c-.3-.5-.2-.9.1-1.3.9-1.2 2.2-1.7 3.4-2 1.8-.5 3.3-.2 4.6.8 1.2 1 1.5 2.9 1.8 4.7 0 .1 0 .3.1.4l.2.2" fill="none" stroke="#fbd91c" stroke-miterlimit="10"/></svg>