<?xml version="1.0" encoding="utf-8"?>
<!-- Generator: Adobe Illustrator 16.0.0, SVG Export Plug-In . SVG Version: 6.00 Build 0)  -->
<!DOCTYPE svg PUBLIC "-//W3C//DTD SVG 1.1//EN" "http://www.w3.org/Graphics/SVG/1.1/DTD/svg11.dtd">
<svg version="1.1" id="Layer_1" xmlns="http://www.w3.org/2000/svg" xmlns:xlink="http://www.w3.org/1999/xlink" x="0px" y="0px"
	 width="118.577px" height="47.036px" viewBox="0 0 118.577 47.036" enable-background="new 0 0 118.577 47.036"
	 xml:space="preserve">
<symbol  id="logoisoletras_2" viewBox="-47.617 -13.189 27.168 25.568">
	<g id="Layer_3_8_">
		<g>
			<polygon fill-rule="evenodd" clip-rule="evenodd" fill="#005278" points="-20.449,12.379 -20.449,-13.189 -47.617,-13.189 
				-47.617,12.379 			"/>
		</g>
		<g>
			<g>
				<path fill-rule="evenodd" clip-rule="evenodd" fill="#FFFFFF" d="M-39.017,5.592c0.521,0.27,1.125,0.711,1.811,1.326
					l2.641,0.807c0.395,0.109,0.707,0.146,0.936,0.105c0.371,0,0.687-0.035,0.948-0.105c0.86-0.104,1.705-0.293,2.533-0.568
					c1.548-0.436,3.048-1.142,4.501-2.121l0.888-0.651l2.76,3.292v-12.02c-0.07,1.025-0.319,1.906-0.746,2.641
					c-0.498,0.916-1.196,1.682-2.096,2.297c-0.64,0.467-1.228,0.83-1.765,1.09c-0.56,0.237-1.006,0.411-1.338,0.521h-0.355
					l-0.817-0.143c-0.418-0.047-0.865,0.091-1.338,0.415l-0.912,0.521c-0.173,0.024-0.312,0.075-0.415,0.154
					c-1.066,0.521-2.096,0.746-3.091,0.676h-0.285l-0.213,0.201c-0.071,0.055-0.123,0.189-0.154,0.402
					c0,0.213,0.15,0.375,0.45,0.485c0.387,0.087,0.88,0.126,1.481,0.118c0.402-0.078,0.888-0.118,1.457-0.118
					c-0.379,0.45-0.73,0.698-1.054,0.746c-0.79,0.056-1.291,0.083-1.504,0.083h-0.758c-0.158-0.039-0.333-0.031-0.521,0.023
					l-0.118-0.297c-0.032-0.252-0.087-0.453-0.166-0.603l-0.32-0.581c-0.094-0.039-0.182-0.043-0.261-0.012
					c-0.063,0.04-0.086,0.083-0.071,0.131l0.059,0.367v0.26l-0.557-0.805c-0.15-0.166-0.276-0.262-0.378-0.285
					c-0.119-0.047-0.233-0.051-0.344-0.011c-0.142,0.118-0.213,0.185-0.213,0.2l0.107,0.143l0.39,0.781l-0.627-0.295
					c-0.284-0.143-0.49-0.222-0.616-0.237c-0.268-0.087-0.466-0.118-0.592-0.095c-0.213,0.071-0.34,0.162-0.379,0.271
					c-0.103,0.198-0.126,0.313-0.071,0.344L-39.017,5.592z M-45.839,1.127c0.529-0.939,1.236-1.705,2.12-2.297
					c0.671-0.498,1.251-0.857,1.741-1.078c0.489-0.229,0.94-0.406,1.35-0.533h0.355l0.805,0.143c0.451,0.047,0.9-0.096,1.35-0.426
					l0.9-0.498c0.182-0.023,0.319-0.074,0.414-0.154c1.082-0.527,2.12-0.758,3.115-0.686h0.284l0.201-0.201
					c0.071-0.057,0.119-0.193,0.143-0.414c0-0.23-0.146-0.383-0.438-0.463c-0.378-0.111-0.868-0.15-1.468-0.117
					c-0.49,0.076-0.975,0.117-1.457,0.117c0.395-0.475,0.746-0.723,1.054-0.746c0.64-0.057,1.137-0.084,1.493-0.084h0.77
					c0.166,0.025,0.339,0.01,0.521-0.047l0.118,0.295c0.031,0.279,0.083,0.479,0.154,0.605l0.32,0.592
					c0.102,0.049,0.193,0.053,0.272,0.012c0.047-0.025,0.07-0.063,0.07-0.119l-0.059-0.391v-0.234
					c0.157,0.234,0.249,0.367,0.272,0.389l0.261,0.402c0.181,0.182,0.315,0.277,0.402,0.285c0.111,0.057,0.221,0.059,0.332,0.012
					c0.134-0.119,0.201-0.189,0.201-0.213l-0.094-0.131l-0.403-0.795l0.652,0.311c0.292,0.141,0.493,0.221,0.604,0.236
					c0.269,0.104,0.466,0.129,0.592,0.084c0.197-0.049,0.328-0.135,0.391-0.264c0.095-0.197,0.115-0.311,0.059-0.342l-1.102-0.543
					c-0.513-0.262-1.121-0.703-1.824-1.328l-2.641-0.807c-0.411-0.117-0.719-0.148-0.924-0.094c-0.387,0-0.706,0.031-0.959,0.094
					c-0.829,0.096-1.67,0.285-2.523,0.568c-1.492,0.42-2.996,1.131-4.512,2.135l-0.876,0.65l-2.771-3.305V3.78
					C-46.518,2.777-46.273,1.894-45.839,1.127z"/>
			</g>
		</g>
		<g>
			<path fill-rule="evenodd" clip-rule="evenodd" fill="#F8FBF7" d="M-22.1-11.395v22.302h-23.899v-22.302H-22.1z M-21.744,11.617
				c0.097,0,0.181-0.036,0.249-0.106c0.07-0.068,0.105-0.151,0.106-0.249v-23.01c-0.001-0.098-0.036-0.182-0.106-0.25
				c-0.068-0.068-0.152-0.105-0.249-0.105h-24.61c-0.097,0-0.18,0.037-0.249,0.105c-0.07,0.068-0.105,0.152-0.106,0.25v23.01
				c0.001,0.098,0.037,0.181,0.106,0.249c0.068,0.07,0.151,0.106,0.249,0.106H-21.744z"/>
		</g>
		<g>
			<g>
				<path fill-rule="evenodd" clip-rule="evenodd" fill="#74BE6D" d="M-31.014-0.234c0-0.83-0.304-1.553-0.912-2.168
					c-0.6-0.574-1.303-0.863-2.108-0.863c-0.829,0-1.552,0.289-2.167,0.863c-0.584,0.609-0.876,1.332-0.876,2.168
					c0,0.852,0.292,1.578,0.876,2.179c0.608,0.592,1.331,0.888,2.167,0.888c0.813,0,1.516-0.296,2.108-0.888
					C-31.317,1.344-31.014,0.617-31.014-0.234z M-30.563-0.258c0-0.963-0.332-1.781-0.995-2.451
					c-0.687-0.703-1.508-1.055-2.463-1.055c-0.939,0-1.756,0.352-2.452,1.055c-0.671,0.654-1.006,1.473-1.006,2.451
					c0,0.986,0.335,1.815,1.006,2.486c0.703,0.68,1.52,1.019,2.452,1.019c0.932,0,1.753-0.339,2.463-1.019
					C-30.895,1.541-30.563,0.713-30.563-0.258z M-31.7,2.098c-0.64,0.641-1.414,0.959-2.321,0.959c-0.899,0-1.677-0.318-2.333-0.959
					c-0.639-0.631-0.959-1.408-0.959-2.332c0-0.916,0.32-1.693,0.959-2.334c0.647-0.631,1.425-0.945,2.333-0.945
					c0.916,0,1.69,0.314,2.321,0.945c0.632,0.641,0.947,1.418,0.947,2.334C-30.753,0.689-31.068,1.467-31.7,2.098z"/>
			</g>
			<g>
				<path fill-rule="evenodd" clip-rule="evenodd" fill="#F8FBF7" d="M-32.292,1.246c0.119-0.119,0.178-0.272,0.178-0.462
					c0-0.19-0.059-0.347-0.178-0.474c-0.134-0.127-0.3-0.189-0.498-0.189c-0.197,0-0.359,0.063-0.485,0.189
					c-0.142,0.127-0.213,0.283-0.213,0.474c0,0.166,0.071,0.319,0.213,0.462c0.118,0.127,0.28,0.189,0.485,0.189
					S-32.418,1.373-32.292,1.246z M-32.269-0.164c0.134-0.133,0.201-0.295,0.201-0.484v-1.256h-1.362l-0.012,0.084v1.172
					c0,0.197,0.063,0.359,0.189,0.484c0.166,0.127,0.328,0.189,0.486,0.189h0.011C-32.597,0.025-32.435-0.037-32.269-0.164z
					 M-35.774,0.771c0.102,0.104,0.241,0.154,0.414,0.154c0.182,0,0.324-0.051,0.426-0.154c0.119-0.133,0.178-0.268,0.178-0.402
					c0-0.15-0.059-0.289-0.178-0.414c-0.126-0.109-0.268-0.166-0.426-0.166c-0.142,0-0.28,0.057-0.414,0.166
					c-0.119,0.117-0.178,0.256-0.178,0.414C-35.952,0.52-35.893,0.654-35.774,0.771z M-35.774-0.424
					c0.055,0.063,0.142,0.113,0.26,0.154l0.167,0.012l0.201-0.012c0.126-0.049,0.209-0.1,0.249-0.154l0.06-0.072
					c0.071-0.07,0.106-0.172,0.106-0.307v-0.463l0.154-0.639h-1.551l0.166,0.723v0.379C-35.963-0.662-35.901-0.535-35.774-0.424z
					 M-33.785-0.033c0.063-0.063,0.095-0.15,0.095-0.262c0-0.117-0.032-0.209-0.095-0.271c-0.079-0.07-0.17-0.105-0.272-0.105
					s-0.197,0.035-0.284,0.105c-0.071,0.096-0.106,0.186-0.106,0.271c0,0.104,0.036,0.191,0.106,0.262
					c0.087,0.07,0.182,0.105,0.284,0.105S-33.864,0.037-33.785-0.033z M-34.045-0.732c0.11,0,0.213-0.043,0.308-0.131
					c0.079-0.094,0.118-0.191,0.118-0.295v-0.746h-0.876v0.746c0,0.109,0.047,0.209,0.142,0.295
					C-34.258-0.775-34.156-0.732-34.045-0.732z"/>
			</g>
		</g>
	</g>
</symbol>
<use xlink:href="#logoisoletras_2"  width="27.168" height="25.568" id="XMLID_4_" x="-47.617" y="-13.189" transform="matrix(1.7383 0 0 -1.7383 83.749 22.7729)" overflow="visible"/>
<path fill-rule="evenodd" clip-rule="evenodd" fill="#005278" d="M98.299,13.949c-0.753-0.525-1.522-0.923-2.301-1.195
	c-0.788-0.273-1.55-0.411-2.288-0.411c-0.536,0-0.94,0.103-1.22,0.306c-0.272,0.197-0.409,0.443-0.409,0.738v0.049
	c0,0.192,0.043,0.355,0.129,0.488c0.092,0.145,0.239,0.276,0.441,0.395c0.214,0.111,0.503,0.23,0.866,0.354
	c0.368,0.111,0.835,0.231,1.396,0.36c0.937,0.196,1.778,0.434,2.527,0.706c0.754,0.272,1.396,0.604,1.927,0.994
	c0.528,0.387,0.932,0.855,1.21,1.411c0.283,0.557,0.425,1.216,0.425,1.975v0.048c0,0.846-0.161,1.593-0.481,2.246
	s-0.77,1.205-1.348,1.66c-0.564,0.464-1.256,0.815-2.068,1.053c-0.809,0.242-1.708,0.367-2.704,0.367
	c-1.474,0-2.861-0.225-4.173-0.673c-1.314-0.461-2.479-1.143-3.488-2.047l2.519-3.008c1.632,1.305,3.398,1.958,5.304,1.958
	c0.604,0,1.066-0.097,1.385-0.288c0.322-0.192,0.484-0.47,0.484-0.826v-0.05c0-0.171-0.039-0.32-0.112-0.45
	c-0.081-0.139-0.226-0.27-0.435-0.394c-0.213-0.126-0.498-0.247-0.851-0.359c-0.347-0.112-0.802-0.236-1.362-0.368
	c-0.867-0.199-1.675-0.419-2.424-0.658c-0.748-0.247-1.398-0.56-1.949-0.94c-0.551-0.38-0.986-0.852-1.307-1.417
	c-0.322-0.572-0.483-1.277-0.483-2.11v-0.047c0-0.773,0.146-1.476,0.436-2.111c0.286-0.637,0.708-1.188,1.259-1.653
	c0.551-0.465,1.215-0.826,1.99-1.083c0.783-0.256,1.666-0.384,2.646-0.384c1.401,0,2.646,0.181,3.738,0.545
	c1.104,0.363,2.094,0.906,2.977,1.628L98.299,13.949z M85.087,25.205h-3.971l-6.988-8.978v8.978h-4.475V8.855h4.227l6.722,8.64
	v-8.64h4.485V25.205z M64.743,13.949c-0.755-0.525-1.523-0.923-2.304-1.195c-0.786-0.273-1.548-0.411-2.285-0.411
	c-0.536,0-0.943,0.103-1.22,0.306c-0.272,0.197-0.409,0.443-0.409,0.738v0.049c0,0.192,0.042,0.355,0.129,0.488
	c0.09,0.145,0.236,0.276,0.44,0.395c0.213,0.111,0.502,0.23,0.866,0.354c0.369,0.111,0.834,0.231,1.396,0.36
	c0.936,0.196,1.779,0.434,2.527,0.706c0.755,0.272,1.396,0.604,1.926,0.994c0.527,0.387,0.933,0.855,1.212,1.411
	c0.283,0.557,0.425,1.216,0.425,1.975v0.048c0,0.846-0.162,1.593-0.483,2.246c-0.322,0.653-0.768,1.205-1.347,1.66
	c-0.567,0.464-1.256,0.815-2.07,1.053c-0.808,0.242-1.709,0.367-2.703,0.367c-1.471,0-2.861-0.225-4.172-0.673
	c-1.316-0.461-2.479-1.143-3.49-2.047l2.52-3.008c1.631,1.305,3.398,1.958,5.302,1.958c0.605,0,1.068-0.097,1.388-0.288
	c0.321-0.192,0.481-0.47,0.481-0.826v-0.05c0-0.171-0.037-0.32-0.112-0.45c-0.08-0.139-0.225-0.27-0.433-0.394
	c-0.213-0.126-0.497-0.247-0.851-0.359c-0.347-0.112-0.802-0.236-1.363-0.368c-0.867-0.199-1.674-0.419-2.422-0.658
	c-0.749-0.247-1.399-0.56-1.95-0.94c-0.55-0.38-0.985-0.852-1.307-1.417c-0.321-0.572-0.481-1.277-0.481-2.11v-0.047
	c0-0.773,0.144-1.476,0.433-2.111c0.29-0.637,0.71-1.188,1.26-1.653c0.551-0.465,1.214-0.826,1.99-1.083
	c0.785-0.256,1.668-0.384,2.647-0.384c1.401,0,2.646,0.181,3.738,0.545c1.102,0.363,2.093,0.906,2.977,1.628L64.743,13.949z"/>
<g>
	<path fill="#004E78" d="M54.758,31.765c0.132,0.377,0.425,0.761,1.067,0.761c0.516,0,0.886-0.301,0.886-0.81
		c0-1.221-2.288-0.906-2.288-2.483c0-0.697,0.53-1.248,1.395-1.248c0.872,0,1.263,0.607,1.381,0.935l-0.474,0.195
		c-0.112-0.244-0.377-0.614-0.914-0.614s-0.823,0.328-0.823,0.732c0,1.116,2.295,0.887,2.295,2.448c0,0.768-0.565,1.368-1.479,1.368
		c-0.949,0-1.374-0.607-1.527-1.075L54.758,31.765z"/>
	<path fill="#004E78" d="M58.118,28.076h2.316v0.517h-1.751v1.625h1.527v0.509h-1.527v1.723h1.827v0.509h-2.392V28.076z"/>
	<path fill="#004E78" d="M61.424,28.076h1.242c0.997,0,1.521,0.502,1.521,1.353c0,0.579-0.287,1.109-0.851,1.291l1.213,2.238h-0.627
		l-1.103-2.12h-0.83v2.12h-0.565V28.076z M62.666,30.342c0.572,0,0.927-0.265,0.927-0.906c0-0.517-0.271-0.858-0.962-0.858h-0.642
		v1.765H62.666z"/>
	<path fill="#004E78" d="M66.466,32.958l-1.855-4.882h0.62l1.535,4.213l1.542-4.213h0.62l-1.855,4.882H66.466z"/>
	<path fill="#004E78" d="M69.541,28.076h0.565v4.882h-0.565V28.076z"/>
	<path fill="#004E78" d="M74.979,32.491c-0.188,0.167-0.752,0.559-1.575,0.559c-1.431,0-2.477-1.089-2.477-2.532
		c0-1.437,1.081-2.532,2.462-2.532c0.732,0,1.256,0.3,1.514,0.509l-0.182,0.503c-0.188-0.154-0.669-0.481-1.317-0.481
		c-1.081,0-1.891,0.864-1.891,2.002c0,1.137,0.774,2.002,1.903,2.002c0.74,0,1.222-0.385,1.389-0.523L74.979,32.491z"/>
	<path fill="#004E78" d="M75.781,28.076h0.565v4.882h-0.565V28.076z"/>
	<path fill="#004E78" d="M79.651,27.985c1.424,0,2.49,1.109,2.49,2.532c0,1.437-1.074,2.532-2.497,2.532
		c-1.415,0-2.482-1.082-2.482-2.532C77.162,29.081,78.236,27.985,79.651,27.985z M79.651,32.519c1.082,0,1.904-0.844,1.904-2.002
		c0-1.144-0.822-2.002-1.904-2.002c-1.081,0-1.904,0.858-1.904,2.002C77.747,31.675,78.57,32.519,79.651,32.519z"/>
	<path fill="#004E78" d="M84.728,28.076h0.564l2.691,3.989v-3.989h0.559v4.882h-0.559l-2.691-3.976v3.976h-0.564V28.076z"/>
	<path fill="#004E78" d="M90.334,31.375l-0.586,1.582h-0.571l1.826-4.882h0.573l1.827,4.882h-0.572l-0.586-1.582H90.334z
		 M91.29,28.696l-0.781,2.19h1.568L91.29,28.696z"/>
	<path fill="#004E78" d="M97.677,32.491c-0.188,0.167-0.753,0.559-1.576,0.559c-1.43,0-2.476-1.089-2.476-2.532
		c0-1.437,1.081-2.532,2.462-2.532c0.732,0,1.256,0.3,1.514,0.509l-0.182,0.503c-0.188-0.154-0.669-0.481-1.318-0.481
		c-1.081,0-1.89,0.864-1.89,2.002c0,1.137,0.774,2.002,1.903,2.002c0.74,0,1.221-0.385,1.389-0.523L97.677,32.491z"/>
	<path fill="#004E78" d="M98.479,28.076h0.564v4.882h-0.564V28.076z"/>
	<path fill="#004E78" d="M102.349,27.985c1.423,0,2.49,1.109,2.49,2.532c0,1.437-1.074,2.532-2.498,2.532
		c-1.415,0-2.482-1.082-2.482-2.532C99.858,29.081,100.933,27.985,102.349,27.985z M102.349,32.519c1.081,0,1.904-0.844,1.904-2.002
		c0-1.144-0.823-2.002-1.904-2.002c-1.08,0-1.903,0.858-1.903,2.002C100.445,31.675,101.269,32.519,102.349,32.519z"/>
	<path fill="#004E78" d="M105.653,28.076h0.564l2.693,3.989v-3.989h0.557v4.882h-0.557l-2.693-3.976v3.976h-0.564V28.076z"/>
	<path fill="#004E78" d="M111.26,31.375l-0.586,1.582h-0.571l1.826-4.882h0.573l1.827,4.882h-0.571l-0.587-1.582H111.26z
		 M112.215,28.696l-0.78,2.19h1.569L112.215,28.696z"/>
	<path fill="#004E78" d="M114.97,28.076h0.563v4.373h1.829v0.509h-2.393V28.076z"/>
</g>
<g>
	<path fill="#004E78" d="M54.518,35.7h1.366c1.681,0,2.724,0.962,2.724,2.57c0,1.645-1.05,2.569-2.724,2.569h-1.366V35.7z
		 M55.92,39.944c0.977,0,1.608-0.565,1.608-1.674c0-1.08-0.631-1.667-1.608-1.667h-0.367v3.341H55.92z"/>
	<path fill="#004E78" d="M59.326,35.7h2.643v0.933h-1.608v1.146h1.381v0.918h-1.381v1.219h1.675v0.925h-2.71V35.7z"/>
	<path fill="#004E78" d="M67.703,36.727l-0.859,0.39c-0.11-0.242-0.301-0.558-0.749-0.558c-0.353,0-0.559,0.212-0.559,0.491
		c0,0.853,2.233,0.728,2.233,2.32c0,0.904-0.646,1.564-1.718,1.564c-1.102,0-1.557-0.771-1.704-1.189l0.874-0.426
		c0.14,0.337,0.426,0.654,0.889,0.654c0.381,0,0.609-0.199,0.609-0.529c0-0.882-2.218-0.734-2.218-2.38
		c0-0.866,0.632-1.461,1.616-1.461C67.151,35.604,67.577,36.353,67.703,36.727z"/>
	<path fill="#004E78" d="M69.559,39.518l-0.448,1.321h-1.042l1.821-5.14h1.086l1.821,5.14h-1.042l-0.449-1.321H69.559z
		 M70.433,36.808l-0.594,1.851h1.197L70.433,36.808z"/>
	<path fill="#004E78" d="M73.346,35.7h1.035v4.207h1.675v0.933h-2.71V35.7z"/>
	<path fill="#004E78" d="M76.517,38.909V35.7h1.035v3.209c0,0.653,0.375,1.065,1.036,1.065s1.035-0.412,1.035-1.065V35.7h1.036
		v3.209c0,1.211-0.742,2.026-2.071,2.026S76.517,40.12,76.517,38.909z"/>
	<path fill="#004E78" d="M81.618,35.7h1.367c1.681,0,2.723,0.962,2.723,2.57c0,1.645-1.049,2.569-2.723,2.569h-1.367V35.7z
		 M83.021,39.944c0.976,0,1.608-0.565,1.608-1.674c0-1.08-0.633-1.667-1.608-1.667h-0.368v3.341H83.021z"/>
</g>
</svg>
