<?xml version="1.0" encoding="utf-8"?>
<!-- Generator: Adobe Illustrator 16.0.0, SVG Export Plug-In . SVG Version: 6.00 Build 0)  -->
<!DOCTYPE svg PUBLIC "-//W3C//DTD SVG 1.1//EN" "http://www.w3.org/Graphics/SVG/1.1/DTD/svg11.dtd">
<svg version="1.1" id="Layer_1" xmlns="http://www.w3.org/2000/svg" xmlns:xlink="http://www.w3.org/1999/xlink" x="0px" y="0px"
	 width="342.415px" height="129.904px" viewBox="0 0 342.415 129.904" enable-background="new 0 0 342.415 129.904"
	 xml:space="preserve">
<symbol  id="logoisoletras_2" viewBox="-47.617 -13.189 27.168 25.568">
	<g id="Layer_3_8_">
		<g>
			<polygon fill-rule="evenodd" clip-rule="evenodd" fill="#005278" points="-20.449,12.379 -20.449,-13.189 -47.617,-13.189 
				-47.617,12.379 			"/>
		</g>
		<g>
			<g>
				<path fill-rule="evenodd" clip-rule="evenodd" fill="#FFFFFF" d="M-39.017,5.592c0.521,0.27,1.125,0.711,1.811,1.326
					l2.641,0.807c0.395,0.109,0.707,0.146,0.936,0.105c0.371,0,0.687-0.035,0.948-0.105c0.86-0.104,1.705-0.293,2.533-0.568
					c1.548-0.436,3.048-1.142,4.501-2.121l0.888-0.651l2.76,3.292v-12.02c-0.07,1.025-0.319,1.906-0.746,2.641
					c-0.498,0.916-1.196,1.682-2.096,2.297c-0.64,0.467-1.228,0.83-1.765,1.09c-0.56,0.237-1.006,0.411-1.338,0.521h-0.355
					l-0.817-0.143c-0.418-0.047-0.865,0.091-1.338,0.415l-0.912,0.521c-0.173,0.024-0.312,0.075-0.415,0.154
					c-1.066,0.521-2.096,0.746-3.091,0.676h-0.285l-0.213,0.201c-0.071,0.055-0.123,0.189-0.154,0.402
					c0,0.213,0.15,0.375,0.45,0.485c0.387,0.087,0.88,0.126,1.481,0.118c0.402-0.078,0.888-0.118,1.457-0.118
					c-0.379,0.45-0.73,0.698-1.054,0.746c-0.79,0.056-1.291,0.083-1.504,0.083h-0.758c-0.158-0.039-0.333-0.031-0.521,0.023
					l-0.118-0.297c-0.032-0.252-0.087-0.453-0.166-0.603l-0.32-0.581c-0.094-0.039-0.182-0.043-0.261-0.012
					c-0.063,0.04-0.086,0.083-0.071,0.131l0.059,0.367v0.26l-0.557-0.805c-0.15-0.166-0.276-0.262-0.378-0.285
					c-0.119-0.047-0.233-0.051-0.344-0.011c-0.142,0.118-0.213,0.185-0.213,0.2l0.107,0.143l0.39,0.781l-0.627-0.295
					c-0.284-0.143-0.49-0.222-0.616-0.237c-0.268-0.087-0.466-0.118-0.592-0.095c-0.213,0.071-0.34,0.162-0.379,0.271
					c-0.103,0.198-0.126,0.313-0.071,0.344L-39.017,5.592z M-45.839,1.127c0.529-0.939,1.236-1.705,2.12-2.297
					c0.671-0.498,1.251-0.857,1.741-1.078c0.489-0.229,0.94-0.406,1.35-0.533h0.355l0.805,0.143c0.451,0.047,0.9-0.096,1.35-0.426
					l0.9-0.498c0.182-0.023,0.319-0.074,0.414-0.154c1.082-0.527,2.12-0.758,3.115-0.686h0.284l0.201-0.201
					c0.071-0.057,0.119-0.193,0.143-0.414c0-0.23-0.146-0.383-0.438-0.463c-0.378-0.111-0.868-0.15-1.468-0.117
					c-0.49,0.076-0.975,0.117-1.457,0.117c0.395-0.475,0.746-0.723,1.054-0.746c0.64-0.057,1.137-0.084,1.493-0.084h0.77
					c0.166,0.025,0.339,0.01,0.521-0.047l0.118,0.295c0.031,0.279,0.083,0.479,0.154,0.605l0.32,0.592
					c0.102,0.049,0.193,0.053,0.272,0.012c0.047-0.025,0.07-0.063,0.07-0.119l-0.059-0.391v-0.234
					c0.157,0.234,0.249,0.367,0.272,0.389l0.261,0.402c0.181,0.182,0.315,0.277,0.402,0.285c0.111,0.057,0.221,0.059,0.332,0.012
					c0.134-0.119,0.201-0.189,0.201-0.213l-0.094-0.131l-0.403-0.795l0.652,0.311c0.292,0.141,0.493,0.221,0.604,0.236
					c0.269,0.104,0.466,0.129,0.592,0.084c0.197-0.049,0.328-0.135,0.391-0.264c0.095-0.197,0.115-0.311,0.059-0.342l-1.102-0.543
					c-0.513-0.262-1.121-0.703-1.824-1.328l-2.641-0.807c-0.411-0.117-0.719-0.148-0.924-0.094c-0.387,0-0.706,0.031-0.959,0.094
					c-0.829,0.096-1.67,0.285-2.523,0.568c-1.492,0.42-2.996,1.131-4.512,2.135l-0.876,0.65l-2.771-3.305V3.78
					C-46.518,2.777-46.273,1.894-45.839,1.127z"/>
			</g>
		</g>
		<g>
			<path fill-rule="evenodd" clip-rule="evenodd" fill="#F8FBF7" d="M-22.1-11.395v22.302h-23.899v-22.302H-22.1z M-21.744,11.617
				c0.097,0,0.181-0.036,0.249-0.106c0.07-0.068,0.105-0.151,0.106-0.249v-23.01c-0.001-0.098-0.036-0.182-0.106-0.25
				c-0.068-0.068-0.152-0.105-0.249-0.105h-24.61c-0.097,0-0.18,0.037-0.249,0.105c-0.07,0.068-0.105,0.152-0.106,0.25v23.01
				c0.001,0.098,0.037,0.181,0.106,0.249c0.068,0.07,0.151,0.106,0.249,0.106H-21.744z"/>
		</g>
		<g>
			<g>
				<path fill-rule="evenodd" clip-rule="evenodd" fill="#74BE6D" d="M-31.014-0.234c0-0.83-0.304-1.553-0.912-2.168
					c-0.6-0.574-1.303-0.863-2.108-0.863c-0.829,0-1.552,0.289-2.167,0.863c-0.584,0.609-0.876,1.332-0.876,2.168
					c0,0.852,0.292,1.578,0.876,2.179c0.608,0.592,1.331,0.888,2.167,0.888c0.813,0,1.516-0.296,2.108-0.888
					C-31.317,1.344-31.014,0.617-31.014-0.234z M-30.563-0.258c0-0.963-0.332-1.781-0.995-2.451
					c-0.687-0.703-1.508-1.055-2.463-1.055c-0.939,0-1.756,0.352-2.452,1.055c-0.671,0.654-1.006,1.473-1.006,2.451
					c0,0.986,0.335,1.815,1.006,2.486c0.703,0.68,1.52,1.019,2.452,1.019c0.932,0,1.753-0.339,2.463-1.019
					C-30.895,1.541-30.563,0.713-30.563-0.258z M-31.7,2.098c-0.64,0.641-1.414,0.959-2.321,0.959c-0.899,0-1.677-0.318-2.333-0.959
					c-0.639-0.631-0.959-1.408-0.959-2.332c0-0.916,0.32-1.693,0.959-2.334c0.647-0.631,1.425-0.945,2.333-0.945
					c0.916,0,1.69,0.314,2.321,0.945c0.632,0.641,0.947,1.418,0.947,2.334C-30.753,0.689-31.068,1.467-31.7,2.098z"/>
			</g>
			<g>
				<path fill-rule="evenodd" clip-rule="evenodd" fill="#F8FBF7" d="M-32.292,1.246c0.119-0.119,0.178-0.272,0.178-0.462
					c0-0.19-0.059-0.347-0.178-0.474c-0.134-0.127-0.3-0.189-0.498-0.189c-0.197,0-0.359,0.063-0.485,0.189
					c-0.142,0.127-0.213,0.283-0.213,0.474c0,0.166,0.071,0.319,0.213,0.462c0.118,0.127,0.28,0.189,0.485,0.189
					S-32.418,1.373-32.292,1.246z M-32.269-0.164c0.134-0.133,0.201-0.295,0.201-0.484v-1.256h-1.362l-0.012,0.084v1.172
					c0,0.197,0.063,0.359,0.189,0.484c0.166,0.127,0.328,0.189,0.486,0.189h0.011C-32.597,0.025-32.435-0.037-32.269-0.164z
					 M-35.774,0.771c0.102,0.104,0.241,0.154,0.414,0.154c0.182,0,0.324-0.051,0.426-0.154c0.119-0.133,0.178-0.268,0.178-0.402
					c0-0.15-0.059-0.289-0.178-0.414c-0.126-0.109-0.268-0.166-0.426-0.166c-0.142,0-0.28,0.057-0.414,0.166
					c-0.119,0.117-0.178,0.256-0.178,0.414C-35.952,0.52-35.893,0.654-35.774,0.771z M-35.774-0.424
					c0.055,0.063,0.142,0.113,0.26,0.154l0.167,0.012l0.201-0.012c0.126-0.049,0.209-0.1,0.249-0.154l0.06-0.072
					c0.071-0.07,0.106-0.172,0.106-0.307v-0.463l0.154-0.639h-1.551l0.166,0.723v0.379C-35.963-0.662-35.901-0.535-35.774-0.424z
					 M-33.785-0.033c0.063-0.063,0.095-0.15,0.095-0.262c0-0.117-0.032-0.209-0.095-0.271c-0.079-0.07-0.17-0.105-0.272-0.105
					s-0.197,0.035-0.284,0.105c-0.071,0.096-0.106,0.186-0.106,0.271c0,0.104,0.036,0.191,0.106,0.262
					c0.087,0.07,0.182,0.105,0.284,0.105S-33.864,0.037-33.785-0.033z M-34.045-0.732c0.11,0,0.213-0.043,0.308-0.131
					c0.079-0.094,0.118-0.191,0.118-0.295v-0.746h-0.876v0.746c0,0.109,0.047,0.209,0.142,0.295
					C-34.258-0.775-34.156-0.732-34.045-0.732z"/>
			</g>
		</g>
	</g>
</symbol>
<use xlink:href="#logoisoletras_2"  width="27.168" height="25.568" id="XMLID_4_" x="-47.617" y="-13.189" transform="matrix(4.8999 0 0 -4.8999 234.2959 63.9414)" overflow="visible"/>
<path fill-rule="evenodd" clip-rule="evenodd" fill="#FFFFFF" d="M275.309,39.067c-2.122-1.48-4.291-2.601-6.485-3.368
	c-2.221-0.771-4.369-1.16-6.449-1.16c-1.512,0-2.651,0.29-3.438,0.862c-0.768,0.556-1.153,1.25-1.153,2.081v0.138
	c0,0.542,0.122,1.002,0.364,1.376c0.258,0.407,0.673,0.779,1.243,1.112c0.603,0.313,1.418,0.65,2.441,0.996
	c1.039,0.314,2.354,0.653,3.934,1.016c2.642,0.554,5.015,1.222,7.125,1.99c2.125,0.768,3.936,1.701,5.432,2.802
	c1.488,1.091,2.626,2.412,3.409,3.978c0.798,1.569,1.197,3.427,1.197,5.566v0.135c0,2.384-0.453,4.489-1.356,6.331
	c-0.903,1.842-2.17,3.397-3.799,4.68c-1.591,1.308-3.54,2.298-5.83,2.967c-2.28,0.683-4.814,1.035-7.622,1.035
	c-4.155,0-8.066-0.633-11.763-1.896c-3.706-1.3-6.986-3.221-9.833-5.77l7.1-8.478c4.599,3.677,9.578,5.519,14.95,5.519
	c1.705,0,3.005-0.272,3.902-0.812c0.909-0.543,1.365-1.324,1.365-2.329v-0.141c0-0.481-0.109-0.902-0.315-1.269
	c-0.229-0.391-0.637-0.76-1.224-1.109c-0.602-0.355-1.405-0.696-2.4-1.013c-0.976-0.317-2.259-0.667-3.838-1.039
	c-2.445-0.561-4.722-1.18-6.834-1.855c-2.108-0.696-3.941-1.578-5.494-2.651c-1.552-1.071-2.779-2.401-3.683-3.994
	c-0.908-1.613-1.362-3.601-1.362-5.948v-0.132c0-2.18,0.41-4.16,1.228-5.951c0.806-1.794,1.995-3.348,3.548-4.661
	c1.553-1.31,3.424-2.328,5.611-3.052c2.207-0.721,4.695-1.082,7.458-1.082c3.95,0,7.461,0.51,10.538,1.537
	c3.11,1.023,5.902,2.554,8.391,4.588L275.309,39.067z M238.066,70.796h-11.191L207.177,45.49v25.306h-12.614V24.709h11.914
	l18.947,24.354V24.709h12.643V70.796z M180.722,39.067c-2.129-1.48-4.294-2.601-6.493-3.368c-2.217-0.771-4.365-1.16-6.441-1.16
	c-1.509,0-2.658,0.29-3.438,0.862c-0.769,0.556-1.153,1.25-1.153,2.081v0.138c0,0.542,0.118,1.002,0.364,1.376
	c0.254,0.407,0.665,0.779,1.24,1.112c0.603,0.313,1.416,0.65,2.441,0.996c1.041,0.314,2.352,0.653,3.935,1.016
	c2.64,0.554,5.014,1.222,7.122,1.99c2.129,0.768,3.938,1.701,5.43,2.802c1.486,1.091,2.629,2.412,3.416,3.978
	c0.798,1.569,1.2,3.427,1.2,5.566v0.135c0,2.384-0.455,4.489-1.362,6.331c-0.907,1.842-2.164,3.397-3.796,4.68
	c-1.601,1.308-3.542,2.298-5.834,2.967c-2.278,0.683-4.821,1.035-7.621,1.035c-4.145,0-8.064-0.633-11.761-1.896
	c-3.708-1.3-6.987-3.221-9.837-5.77l7.104-8.478c4.598,3.677,9.579,5.519,14.944,5.519c1.705,0,3.011-0.272,3.913-0.812
	c0.907-0.543,1.355-1.324,1.355-2.329v-0.141c0-0.481-0.104-0.902-0.315-1.269c-0.226-0.391-0.635-0.76-1.22-1.109
	c-0.602-0.355-1.401-0.696-2.399-1.013c-0.978-0.317-2.26-0.667-3.843-1.039c-2.442-0.561-4.718-1.18-6.827-1.855
	c-2.111-0.696-3.945-1.578-5.497-2.651c-1.551-1.071-2.779-2.401-3.685-3.994c-0.905-1.613-1.358-3.601-1.358-5.948v-0.132
	c0-2.18,0.406-4.16,1.221-5.951c0.816-1.794,2-3.348,3.552-4.661c1.554-1.31,3.421-2.328,5.609-3.052
	c2.214-0.721,4.704-1.082,7.462-1.082c3.948,0,7.459,0.51,10.535,1.537c3.107,1.023,5.902,2.554,8.392,4.588L180.722,39.067z"/>
<g>
	<path fill="#FFFFFF" d="M152.576,89.289c0.372,1.063,1.198,2.145,3.008,2.145c1.453,0,2.497-0.848,2.497-2.282
		c0-3.441-6.449-2.554-6.449-7c0-1.965,1.495-3.519,3.931-3.519c2.458,0,3.56,1.713,3.895,2.635l-1.338,0.55
		c-0.315-0.688-1.062-1.731-2.576-1.731c-1.514,0-2.318,0.925-2.318,2.065c0,3.146,6.47,2.499,6.47,6.9
		c0,2.164-1.596,3.857-4.171,3.857c-2.673,0-3.872-1.712-4.305-3.031L152.576,89.289z"/>
	<path fill="#FFFFFF" d="M162.049,78.889h6.527v1.456h-4.936v4.58h4.305v1.434h-4.305v4.856h5.15v1.435h-6.742V78.889z"/>
	<path fill="#FFFFFF" d="M171.366,78.889h3.5c2.81,0,4.287,1.414,4.287,3.812c0,1.632-0.81,3.126-2.4,3.639l3.421,6.31h-1.77
		l-3.107-5.977h-2.338v5.977h-1.593V78.889z M174.866,85.277c1.611,0,2.613-0.745,2.613-2.554c0-1.456-0.767-2.42-2.712-2.42h-1.809
		v4.974H174.866z"/>
	<path fill="#FFFFFF" d="M185.579,92.65l-5.23-13.761h1.748l4.326,11.875l4.346-11.875h1.748l-5.229,13.761H185.579z"/>
	<path fill="#FFFFFF" d="M194.246,78.889h1.592V92.65h-1.592V78.889z"/>
	<path fill="#FFFFFF" d="M209.577,91.333c-0.528,0.471-2.119,1.575-4.44,1.575c-4.033,0-6.981-3.069-6.981-7.137
		c0-4.05,3.047-7.139,6.939-7.139c2.065,0,3.54,0.845,4.268,1.435l-0.513,1.417c-0.528-0.435-1.886-1.356-3.713-1.356
		c-3.048,0-5.33,2.436-5.33,5.643c0,3.204,2.184,5.642,5.365,5.642c2.087,0,3.444-1.084,3.915-1.475L209.577,91.333z"/>
	<path fill="#FFFFFF" d="M211.836,78.889h1.595V92.65h-1.595V78.889z"/>
	<path fill="#FFFFFF" d="M222.747,78.632c4.013,0,7.018,3.127,7.018,7.139c0,4.048-3.028,7.137-7.037,7.137
		c-3.989,0-6.998-3.05-6.998-7.137C215.729,81.721,218.758,78.632,222.747,78.632z M222.747,91.413c3.049,0,5.365-2.378,5.365-5.642
		c0-3.224-2.316-5.643-5.365-5.643c-3.048,0-5.369,2.419-5.369,5.643C217.378,89.035,219.699,91.413,222.747,91.413z"/>
	<path fill="#FFFFFF" d="M237.055,78.889h1.591l7.587,11.245V78.889h1.573V92.65h-1.573l-7.587-11.207V92.65h-1.591V78.889z"/>
	<path fill="#FFFFFF" d="M252.857,88.189l-1.652,4.46h-1.61l5.147-13.761h1.616l5.15,13.761h-1.612l-1.652-4.46H252.857z
		 M255.553,80.637l-2.202,6.174h4.42L255.553,80.637z"/>
	<path fill="#FFFFFF" d="M273.556,91.333c-0.529,0.471-2.121,1.575-4.444,1.575c-4.028,0-6.977-3.069-6.977-7.137
		c0-4.05,3.047-7.139,6.939-7.139c2.065,0,3.539,0.845,4.268,1.435l-0.513,1.417c-0.531-0.435-1.886-1.356-3.718-1.356
		c-3.046,0-5.325,2.436-5.325,5.643c0,3.204,2.182,5.642,5.365,5.642c2.087,0,3.44-1.084,3.915-1.475L273.556,91.333z"/>
	<path fill="#FFFFFF" d="M275.814,78.889h1.592V92.65h-1.592V78.889z"/>
	<path fill="#FFFFFF" d="M286.726,78.632c4.009,0,7.018,3.127,7.018,7.139c0,4.048-3.028,7.137-7.04,7.137
		c-3.989,0-6.998-3.05-6.998-7.137C279.705,81.721,282.733,78.632,286.726,78.632z M286.726,91.413c3.045,0,5.366-2.378,5.366-5.642
		c0-3.224-2.321-5.643-5.366-5.643c-3.046,0-5.367,2.419-5.367,5.643C281.358,89.035,283.68,91.413,286.726,91.413z"/>
	<path fill="#FFFFFF" d="M296.039,78.889h1.592l7.591,11.245V78.889h1.57V92.65h-1.57l-7.591-11.207V92.65h-1.592V78.889z"/>
	<path fill="#FFFFFF" d="M311.844,88.189l-1.651,4.46h-1.611l5.147-13.761h1.615l5.151,13.761h-1.611l-1.654-4.46H311.844z
		 M314.534,80.637l-2.199,6.174h4.424L314.534,80.637z"/>
	<path fill="#FFFFFF" d="M322.301,78.889h1.589v12.326h5.154v1.435h-6.743V78.889z"/>
</g>
<g>
	<path fill="#FFFFFF" d="M151.9,100.379h3.852c4.737,0,7.677,2.711,7.677,7.245c0,4.636-2.959,7.243-7.677,7.243H151.9V100.379z
		 M155.854,112.342c2.752,0,4.532-1.594,4.532-4.718c0-3.044-1.78-4.699-4.532-4.699h-1.034v9.417H155.854z"/>
	<path fill="#FFFFFF" d="M165.452,100.379h7.449v2.628h-4.531v3.229h3.893v2.587h-3.893v3.436h4.721v2.607h-7.639V100.379z"/>
	<path fill="#FFFFFF" d="M189.064,103.275l-2.422,1.098c-0.312-0.683-0.849-1.571-2.11-1.571c-0.995,0-1.576,0.597-1.576,1.384
		c0,2.403,6.294,2.051,6.294,6.541c0,2.549-1.822,4.41-4.843,4.41c-3.105,0-4.388-2.175-4.804-3.353l2.464-1.2
		c0.393,0.95,1.201,1.844,2.507,1.844c1.074,0,1.716-0.562,1.716-1.491c0-2.486-6.252-2.07-6.252-6.708
		c0-2.442,1.782-4.118,4.555-4.118C187.511,100.109,188.71,102.221,189.064,103.275z"/>
	<path fill="#FFFFFF" d="M194.298,111.143l-1.264,3.724h-2.938l5.134-14.487h3.061l5.134,14.487h-2.938l-1.266-3.724H194.298z
		 M196.761,103.503l-1.676,5.216h3.373L196.761,103.503z"/>
	<path fill="#FFFFFF" d="M204.971,100.379h2.919v11.858h4.721v2.629h-7.64V100.379z"/>
	<path fill="#FFFFFF" d="M213.909,109.424v-9.045h2.918v9.045c0,1.842,1.057,3.003,2.921,3.003c1.862,0,2.918-1.161,2.918-3.003
		v-9.045h2.921v9.045c0,3.414-2.093,5.712-5.839,5.712C216.001,115.136,213.909,112.838,213.909,109.424z"/>
	<path fill="#FFFFFF" d="M228.289,100.379h3.854c4.737,0,7.675,2.711,7.675,7.245c0,4.636-2.957,7.243-7.675,7.243h-3.854V100.379z
		 M232.245,112.342c2.75,0,4.534-1.594,4.534-4.718c0-3.044-1.784-4.699-4.534-4.699h-1.037v9.417H232.245z"/>
</g>
</svg>
