<svg id="Layer_1" data-name="Layer 1" xmlns="http://www.w3.org/2000/svg" viewBox="0 0 15.58 14.3"><defs><style>.cls-1,.cls-2{fill:none;stroke:#fda1a9;stroke-miterlimit:10;stroke-width:.75px}.cls-2{stroke-linecap:round}</style></defs><path class="cls-1" d="M18.22 13.71c-1.49-3-1.33-5.48-1.82-7.55a3.21 3.21 0 0 0-2.33-2.67 1.86 1.86 0 0 0-2.3 1.6.77.77 0 0 1-.77.7.77.77 0 0 1-.77-.7 1.86 1.86 0 0 0-2.3-1.6A3.21 3.21 0 0 0 5.6 6.16C5.11 8.23 5.27 11 3.78 14c-.72 1.43.67 1.33 2.2 1.28 1.95-.06 4-.53 4.51-2.55.27-1.18-.26-3.14-.26-4.35a.77.77 0 0 1 .77-.79.77.77 0 0 1 .77.76c0 1.21-.53 3.17-.26 4.35.47 2 2.56 2.48 4.51 2.54 1.53.05 2.92-.11 2.2-1.53z" transform="translate(-3.21 -1.35)"/><path class="cls-1" d="M7 .38h1.55v3.4a.67.67 0 0 1-.67.67h-.19A.67.67 0 0 1 7 3.77V.38z"/><path class="cls-1" d="M7.02 1.4h1.53v1.02H7.02z"/><path class="cls-1" d="M11 5.79a.77.77 0 0 1-.77-.79v-.21h1.54V5a.77.77 0 0 1-.77.79z" transform="translate(-3.21 -1.35)"/><path class="cls-2" d="M15.09 11.18A4.37 4.37 0 0 0 11 6.58M14.07 4.79c0 1-1.37 1.79-3.07 1.79M6.91 11.18A4.37 4.37 0 0 1 11 6.58M7.93 4.79c0 1 1.37 1.79 3.07 1.79" transform="translate(-3.21 -1.35)"/></svg>